<?xml version="1.0" encoding="UTF-8"?>
<svg version="1.1" xmlns="http://www.w3.org/2000/svg" width="500" height="500">
<path d="M0 0 C165 0 330 0 500 0 C500 165 500 330 500 500 C335 500 170 500 0 500 C0 335 0 170 0 0 Z " fill="#00366E" transform="translate(0,0)"/>
<path d="M0 0 C0.9384375 -0.01933594 1.876875 -0.03867187 2.84375 -0.05859375 C6.34225216 0.59480298 7.34800136 1.61984076 9.5 4.4375 C10.62327607 6.79918794 11.59546594 9.06009789 12.5 11.5 C12.88019287 12.49157104 12.88019287 12.49157104 13.26806641 13.50317383 C13.7791288 14.84232561 14.28521637 16.1833873 14.78613281 17.52636719 C15.43546058 19.26471801 16.1034383 20.99607378 16.7734375 22.7265625 C19.5 29.90070922 19.5 29.90070922 19.5 34.4375 C20.16 34.4375 20.82 34.4375 21.5 34.4375 C23.64965034 39.02993482 25.06407015 43.3547938 26.0703125 48.32421875 C26.48830716 50.37999251 26.97725492 52.40613098 27.5 54.4375 C28.16 54.4375 28.82 54.4375 29.5 54.4375 C31.489853 58.71568395 33.01556159 62.97959099 34.375 67.5 C37.92005884 80.47066963 37.92005884 80.47066963 44 92.3125 C46.99681026 96.65270797 48.22254733 101.57249184 49.6887207 106.57348633 C50.76929355 110.22036616 51.90921118 113.63442376 53.6875 117 C55.5162393 120.46829868 56.44368061 123.67436219 57.5 127.4375 C58.35913467 129.51264066 59.29427903 131.54653072 60.2265625 133.58984375 C64.29710688 142.6923801 68.38434072 151.88455752 70.89453125 161.5546875 C71.50112054 163.73530587 71.50112054 163.73530587 73.5 166.4375 C80.98306589 182.76915476 80.14094024 206.15006245 73.9921875 222.79296875 C73.49976563 223.99566406 73.00734375 225.19835937 72.5 226.4375 C72.00757813 227.65050781 71.51515625 228.86351562 71.0078125 230.11328125 C70.01909021 232.45701414 69.0067756 234.79096377 67.96875 237.11328125 C66.0811368 241.3855122 64.43372327 245.73179969 62.77734375 250.09765625 C61.4060881 253.68304945 59.9919105 257.2500259 58.5625 260.8125 C58.31113281 261.43962891 58.05976563 262.06675781 57.80078125 262.71289062 C56.53661633 265.8636282 55.26791497 269.0125023 53.99609375 272.16015625 C50.90457034 279.82846529 47.94133228 287.53196083 45.08984375 295.29296875 C43.44630826 299.66475118 41.62840507 303.96114502 39.82250977 308.26782227 C37.66837733 313.43066174 35.58060275 318.61967071 33.5 323.8125 C33.06212158 324.90449707 32.62424316 325.99649414 32.1730957 327.12158203 C29.48236779 333.86921545 26.95960066 340.64003978 24.58203125 347.50390625 C23.14003048 351.41344625 21.39248545 355.14893283 19.62109375 358.91796875 C18.26250766 361.97123713 17.25168786 365.0722787 16.2421875 368.25390625 C14.93325628 372.10491969 13.22002274 375.75639073 11.5 379.4375 C11.02046875 380.54544922 11.02046875 380.54544922 10.53125 381.67578125 C9.05918942 384.92262454 7.91154969 387.08156514 5.1875 389.4375 C1.72886069 390.72443556 -0.83607022 390.83720143 -4.5 390.4375 C-8.48687852 388.21753355 -9.47105115 385.65924894 -10.9375 381.4375 C-12.80291906 376.28184793 -14.84782594 371.31804792 -17.19140625 366.36328125 C-21.10478549 357.61366617 -24.29303147 348.58640947 -27.5 339.56054688 C-29.293734 334.56822079 -31.22761142 329.71104758 -33.42382812 324.88354492 C-35.70363353 319.70174583 -37.69772589 314.39996331 -39.75 309.125 C-40.72338264 306.63258516 -41.69718402 304.14034034 -42.671875 301.6484375 C-43.14947266 300.42737305 -43.62707031 299.20630859 -44.11914062 297.94824219 C-46.35787495 292.25641059 -48.64169663 286.58258965 -50.95019531 280.91870117 C-52.42335528 277.27242901 -53.77763388 273.63537249 -54.96875 269.88671875 C-56.143801 266.28498243 -57.63613908 263.04480213 -59.37988281 259.68896484 C-67.03297113 244.30605716 -72.78018714 227.9034799 -77.01025391 211.27734375 C-77.44445529 209.64616649 -77.96621445 208.03885664 -78.5 206.4375 C-79.84558155 192.07554608 -77.9089607 179.07378558 -73.5 165.4375 C-72.84 165.4375 -72.18 165.4375 -71.5 165.4375 C-71.35243507 164.54169472 -71.35243507 164.54169472 -71.20188904 163.62779236 C-70.00351462 156.98081911 -68.01922715 150.9592293 -65.53515625 144.69140625 C-65.1457486 143.69027802 -64.75634094 142.68914978 -64.35513306 141.65768433 C-63.09905064 138.43521011 -61.83109914 135.2175648 -60.5625 132 C-59.6938976 129.77958149 -58.82581688 127.55895884 -57.95825195 125.33813477 C-53.06520258 112.8372373 -48.12710861 100.35401399 -42.97485352 87.95727539 C-40.79188276 82.69507918 -38.71895973 77.40251111 -36.734375 72.0625 C-33.33706451 62.92327569 -29.75997858 53.85718193 -26.16870117 44.79272461 C-25.06557858 42.0077722 -23.9652546 39.22172592 -22.86523438 36.43554688 C-21.09398031 31.95268709 -19.30852835 27.4756446 -17.51837158 23.00030518 C-16.51487187 20.47492613 -15.52943926 17.94306499 -14.54638672 15.40966797 C-13.93631853 13.86538358 -13.32582731 12.32126621 -12.71484375 10.77734375 C-12.44748917 10.07468887 -12.18013458 9.372034 -11.90467834 8.64808655 C-9.37881281 2.34195388 -6.81476449 0.00936094 0 0 Z " fill="#3290ED" transform="translate(251.5,60.5625)"/>
<path d="M0 0 C0 0.99 0 1.98 0 3 C-0.66 3 -1.32 3 -2 3 C-2.66 6.3 -3.32 9.6 -4 13 C-4.66 13 -5.32 13 -6 13 C-6.185625 14.7015625 -6.185625 14.7015625 -6.375 16.4375 C-6.72831623 19.35520826 -7.26315672 22.09946124 -8.015625 24.9375 C-9.40504876 31.10869861 -9.38306153 37.26092906 -9.375 43.5625 C-9.37411377 44.80161133 -9.37322754 46.04072266 -9.37231445 47.31738281 C-9.20987576 59.92658326 -6.50819701 70.27868777 -2 82 C-2 83.32 -2 84.64 -2 86 C-8.2017925 84.89253705 -13.8203072 83.02008741 -19.69140625 80.74902344 C-27.2304432 77.85814044 -34.86384332 75.24499089 -42.5 72.625 C-43.16608276 72.39627197 -43.83216553 72.16754395 -44.51843262 71.93188477 C-48.34463329 70.6183601 -52.17186278 69.30786926 -56 68 C-56 67.34 -56 66.68 -56 66 C-56.7321875 65.88785156 -57.464375 65.77570313 -58.21875 65.66015625 C-66.64072603 64.12615347 -74.52616389 61.6047918 -82.5625 58.6875 C-83.60921875 58.32084229 -84.6559375 57.95418457 -85.734375 57.57641602 C-91.76854555 55.32384766 -95.52452189 53.51080038 -99 48 C-100.08815583 44.12344485 -100.43670804 42.04324698 -98.875 38.3125 C-94.02003593 32.32471098 -88.2017538 30.33363441 -81.125 27.875 C-80.15691406 27.52824219 -79.18882813 27.18148437 -78.19140625 26.82421875 C-74.33274338 25.45399969 -70.50928397 24.13742583 -66.5546875 23.0703125 C-63.58042241 22.17476455 -60.90833456 21.14656932 -58.0625 19.92578125 C-48.92312598 16.04696026 -39.56729544 12.73733603 -30.23388672 9.35961914 C-26.97765797 8.17940215 -23.72516105 6.98926345 -20.47265625 5.79882812 C-18.39865776 5.0462677 -16.32444658 4.29429314 -14.25 3.54296875 C-13.28022217 3.18679977 -12.31044434 2.8306308 -11.3112793 2.46366882 C-10.40933838 2.1394545 -9.50739746 1.81524017 -8.578125 1.48120117 C-7.78825195 1.19427902 -6.99837891 0.90735687 -6.18457031 0.61174011 C-4 0 -4 0 0 0 Z " fill="#2A87E9" transform="translate(164,213)"/>
<path d="M0 0 C5.08346111 0.65748235 9.589402 2.12936372 14.375 3.875 C15.45007813 4.25978516 15.45007813 4.25978516 16.546875 4.65234375 C20.70384393 6.145551 24.84284529 7.68448776 28.9765625 9.24072266 C33.40682069 10.90313856 37.85078268 12.52874631 42.29199219 14.16162109 C46.50860921 15.71244031 50.7234777 17.2675453 54.93359375 18.8359375 C56.53892059 19.43267356 58.14438791 20.02903187 59.75 20.625 C60.92997559 21.06320068 60.92997559 21.06320068 62.13378906 21.51025391 C67.07647861 23.33162369 72.04844204 25.01244509 77.0625 26.625 C94.54377332 32.40174907 94.54377332 32.40174907 98 39 C98.5589104 42.91237277 98.46366737 45.11481684 96.625 48.625 C89.47736513 55.09190774 80.00672774 57.42976062 71.01806641 60.34326172 C64.50876706 62.46035838 58.21744558 64.85621601 51.88671875 67.4609375 C44.77022592 70.33602309 37.46404852 72.728453 30.21142578 75.23339844 C22.44803786 77.92461483 14.86139216 80.80079879 7.375 84.1875 C4.77986487 85.07530939 2.72361231 85.15563499 0 85 C0.93997773 79.61649118 2.60532958 74.460081 4.18359375 69.23828125 C4.40144531 68.50996094 4.61929687 67.78164063 4.84375 67.03125 C5.04162109 66.37705078 5.23949219 65.72285156 5.44335938 65.04882812 C6.7846373 60.11198411 7.20785492 55.37332807 7.30859375 50.26953125 C7.32362946 49.52531418 7.33866516 48.78109711 7.35415649 48.014328 C7.39374969 45.61368986 7.41886085 43.21338971 7.4375 40.8125 C7.44775711 39.59421509 7.44775711 39.59421509 7.45822144 38.35131836 C7.51040866 25.85487791 6.27618438 15.45852786 1 4 C0.62495132 2.6777945 0.2662939 1.34832357 0 0 Z " fill="#3C98ED" transform="translate(340,214)"/>
<path d="M0 0 C1.06734375 0.63615234 1.06734375 0.63615234 2.15625 1.28515625 C7.47413773 4.84695046 11.24147034 8.75641305 13 15 C13.42154737 18.1900488 13.56560433 21.34678107 13.625 24.5625 C13.64820313 25.36582764 13.67140625 26.16915527 13.6953125 26.99682617 C13.59608261 34.56077967 10.473316 39.2095922 5.5625 44.75 C-3.47327618 52.68385225 -11.53295529 52.59331973 -23 52 C-29.29118869 51.04823167 -32.80224164 47.57186661 -36.75 42.83984375 C-38 41 -38 41 -38 39 C-38.66 39 -39.32 39 -40 39 C-43.45166558 30.80229424 -45.15500218 21.1202062 -42.12109375 12.50390625 C-40.90625657 10.44710271 -39.60035827 8.77095483 -38 7 C-37.23816406 6.06414062 -37.23816406 6.06414062 -36.4609375 5.109375 C-26.98234154 -5.58212186 -12.09301966 -7.24227483 0 0 Z " fill="#013B79" transform="translate(266,232)"/>
<path d="M0 0 C0.66 0 1.32 0 2 0 C2.07462728 4.28666736 2.12882508 8.57298207 2.16479492 12.86010742 C2.17980313 14.31590368 2.20021633 15.77165532 2.22631836 17.22729492 C2.26305676 19.33002789 2.2798056 21.43215885 2.29296875 23.53515625 C2.3086792 24.797229 2.32438965 26.05930176 2.34057617 27.35961914 C1.94747859 31.5613955 0.83923582 34.23455181 -1 38 C-1.77759136 35.66722593 -2.04413541 34.21610888 -1.54711914 31.7824707 C-0.91117954 28.54828791 -0.78518917 25.46256309 -0.68359375 22.16796875 C-0.64169922 20.87568359 -0.59980469 19.58339844 -0.55664062 18.25195312 C-0.51683648 16.89713808 -0.47712409 15.54232033 -0.4375 14.1875 C-0.39426277 12.81313895 -0.35064688 11.43878976 -0.30664062 10.06445312 C-0.2007021 6.70973331 -0.09862811 3.3549414 0 0 Z " fill="#347FC7" transform="translate(348,243)"/>
<path d="M0 0 C0.96164063 0.01546875 1.92328125 0.0309375 2.9140625 0.046875 C5.375 0.25 5.375 0.25 7.375 1.25 C7.045 1.91 6.715 2.57 6.375 3.25 C5.715 2.92 5.055 2.59 4.375 2.25 C-0.76315144 1.4814467 -0.76315144 1.4814467 -5.34375 3.42578125 C-9.22159472 7.57072242 -10.98708601 12.24422846 -12.66796875 17.6015625 C-13.68219572 20.4082804 -15.01825324 22.74256984 -16.625 25.25 C-17.625 23.25 -17.625 23.25 -17.06762695 21.23461914 C-16.03669623 18.58858998 -14.99819247 15.94676744 -13.9375 13.3125 C-13.58494141 12.39275391 -13.23238281 11.47300781 -12.86914062 10.52539062 C-12.51658203 9.64173828 -12.16402344 8.75808594 -11.80078125 7.84765625 C-11.48020752 7.03820557 -11.15963379 6.22875488 -10.8293457 5.39477539 C-8.20309004 0.71777235 -5.14720939 -0.1387388 0 0 Z " fill="#1C65BC" transform="translate(251.625,60.75)"/>
<path d="M0 0 C0 0.99 0 1.98 0 3 C-0.66 3 -1.32 3 -2 3 C-2.66 6.3 -3.32 9.6 -4 13 C-4.33 13 -4.66 13 -5 13 C-5 10.03 -5 7.06 -5 4 C-5.81984375 4.22816406 -6.6396875 4.45632812 -7.484375 4.69140625 C-9.10085937 5.12259766 -9.10085937 5.12259766 -10.75 5.5625 C-11.81734375 5.85253906 -12.8846875 6.14257812 -13.984375 6.44140625 C-16.93209929 6.98742254 -18.21769433 6.82156762 -21 6 C-18.25262623 4.99222971 -15.50250048 3.99358554 -12.75 3 C-11.97269531 2.71382812 -11.19539062 2.42765625 -10.39453125 2.1328125 C-9.64042969 1.86210937 -8.88632813 1.59140625 -8.109375 1.3125 C-7.41811523 1.06113281 -6.72685547 0.80976563 -6.01464844 0.55078125 C-4 0 -4 0 0 0 Z " fill="#206CC1" transform="translate(164,213)"/>
<path d="M0 0 C1.0625 1.8125 1.0625 1.8125 2 4 C1.67 4.99 1.34 5.98 1 7 C0.34 7 -0.32 7 -1 7 C-1.15855469 7.67804688 -1.31710938 8.35609375 -1.48046875 9.0546875 C-3.19317668 15.88659425 -5.6141793 21.83057967 -9 28 C-10 26 -10 26 -9.19555664 23.38623047 C-8.77137451 22.30744629 -8.34719238 21.22866211 -7.91015625 20.1171875 C-7.45576172 18.95058594 -7.00136719 17.78398438 -6.53320312 16.58203125 C-6.04787109 15.35871094 -5.56253906 14.13539062 -5.0625 12.875 C-4.57546917 11.63178547 -4.08913206 10.38829894 -3.60351562 9.14453125 C-2.40915982 6.09360257 -1.20771765 3.04565868 0 0 Z " fill="#1E67BD" transform="translate(227,101)"/>
<path d="M0 0 C0.33 0.99 0.66 1.98 1 3 C1.66 3.33 2.32 3.66 3 4 C2.01 5.485 2.01 5.485 1 7 C0.34 7 -0.32 7 -1 7 C-1.061875 7.969375 -1.12375 8.93875 -1.1875 9.9375 C-1.85625799 14.88225603 -4.42590696 18.81116224 -7 23 C-8 21 -8 21 -7.37915039 18.84521484 C-7.03875732 17.97590332 -6.69836426 17.1065918 -6.34765625 16.2109375 C-5.98349609 15.26992187 -5.61933594 14.32890625 -5.24414062 13.359375 C-4.85419922 12.37453125 -4.46425781 11.3896875 -4.0625 10.375 C-3.48338867 8.88613281 -3.48338867 8.88613281 -2.89257812 7.3671875 C-1.93518863 4.90870583 -0.97074241 2.45323318 0 0 Z " fill="#1D68BD" transform="translate(201,167)"/>
<path d="M0 0 C-2.52095148 2.52095148 -4.59270936 2.97138396 -8 4 C-9.794375 4.5878125 -9.794375 4.5878125 -11.625 5.1875 C-14.89680343 5.97515638 -15.94433641 5.94071739 -19 5 C-16.39985473 3.96772138 -13.79573631 2.94894848 -11.1875 1.9375 C-10.44951172 1.64294922 -9.71152344 1.34839844 -8.95117188 1.04492188 C-3.33984375 -1.11328125 -3.33984375 -1.11328125 0 0 Z " fill="#1F68BD" transform="translate(121,229)"/>
<path d="M0 0 C0.96164063 0.01546875 1.92328125 0.0309375 2.9140625 0.046875 C5.375 0.25 5.375 0.25 7.375 1.25 C7.045 1.91 6.715 2.57 6.375 3.25 C5.715 2.92 5.055 2.59 4.375 2.25 C0.33266279 1.84887589 0.33266279 1.84887589 -3.625 2.25 C-6.62833267 4.58336666 -6.62833267 4.58336666 -8.625 7.25 C-8.955 5.93 -9.285 4.61 -9.625 3.25 C-6.39074957 0.33764179 -4.3128536 -0.11624942 0 0 Z " fill="#246EC5" transform="translate(251.625,60.75)"/>
<path d="M0 0 C-2.1234016 0.83739781 -4.2487728 1.66980283 -6.375 2.5 C-7.55835937 2.9640625 -8.74171875 3.428125 -9.9609375 3.90625 C-13 5 -13 5 -15 5 C-15 5.66 -15 6.32 -15 7 C-16.65 7 -18.3 7 -20 7 C-17.37739925 3.82674642 -14.35249579 2.71265445 -10.5625 1.25 C-9.42941406 0.80140625 -8.29632813 0.3528125 -7.12890625 -0.109375 C-4.10898801 -0.9689772 -2.85271145 -1.14949552 0 0 Z " fill="#1F67BC" transform="translate(89,241)"/>
<path d="M0 0 C0.33 0 0.66 0 1 0 C1 2.64 1 5.28 1 8 C0.01 8.33 -0.98 8.66 -2 9 C-1.67 10.32 -1.34 11.64 -1 13 C-2.98 13.99 -2.98 13.99 -5 15 C-1.92482916 4.44191344 -1.92482916 4.44191344 0 0 Z " fill="#1F6BC4" transform="translate(233,86)"/>
<path d="M0 0 C0.33 0 0.66 0 1 0 C1.49925898 6.11592251 0.35277477 9.06944887 -3 14 C-3.99 14.495 -3.99 14.495 -5 15 C-1.92482916 4.44191344 -1.92482916 4.44191344 0 0 Z " fill="#216CC2" transform="translate(187,203)"/>
<path d="M0 0 C-1.725227 0.67679658 -3.45538939 1.34102 -5.1875 2 C-6.15042969 2.37125 -7.11335938 2.7425 -8.10546875 3.125 C-10.92182358 3.97636772 -13.08164439 4.17072647 -16 4 C-15.67 3.01 -15.34 2.02 -15 1 C-14.34 1 -13.68 1 -13 1 C-10.46362013 0.47358154 -7.93721153 -0.09073142 -5.41015625 -0.66015625 C-3 -1 -3 -1 0 0 Z " fill="#367DC3" transform="translate(356,295)"/>
<path d="M0 0 C0.33 0 0.66 0 1 0 C1.45732667 5.71658336 0.52273754 8.48649253 -3 13 C-4 11 -4 11 -3.22265625 8.3984375 C-2.83980469 7.40070313 -2.45695313 6.40296875 -2.0625 5.375 C-1.68222656 4.37210938 -1.30195313 3.36921875 -0.91015625 2.3359375 C-0.60980469 1.56507813 -0.30945313 0.79421875 0 0 Z " fill="#216BBF" transform="translate(192,190)"/>
<path d="M0 0 C1.62600941 0.0870005 3.25089678 0.1951781 4.875 0.3125 C5.77992187 0.37050781 6.68484375 0.42851562 7.6171875 0.48828125 C10 1 10 1 12 4 C7.6822542 3.49202991 3.96697886 2.80317221 0 1 C0 0.67 0 0.34 0 0 Z " fill="#2169BD" transform="translate(72,267)"/>
<path d="M0 0 C0.33 0 0.66 0 1 0 C1 2.64 1 5.28 1 8 C-0.98 8.99 -0.98 8.99 -3 10 C-2.01 6.7 -1.02 3.4 0 0 Z " fill="#1E6BC1" transform="translate(205,157)"/>
</svg>
